<?xml version="1.0" encoding="UTF-8"?>
<svg id="Capa_1" data-name="Capa 1" xmlns="http://www.w3.org/2000/svg" viewBox="0 0 426 426">
  <defs>
    <style>
      .cls-1 {
        fill: #458749;
      }
    </style>
  </defs>
  <path class="cls-1" d="M344.74,238.62c2.85,3.51,1.02,12.22-.68,16.24-8.12,19.15-34.74,15.77-51.39,17.49-36.49,3.75-54.65,9.69-60.24,49.62-1.35,9.63.03,35.12-13.58,36.41-17.95,1.71-6.52-26.06-15.51-32.49-15.38-11-14.66,17.45-24.95,23.91-6.3,3.96-15.09,1.52-16.68-6.18-3.12-15.14,13.81-37.03,2.16-50.17-17.12-19.31-30.89,7.45-46.57,12.12-15.26,4.54-20.86-9.37-12.11-21.13,2.17-2.91,18.11-16.03,8.69-18.88-7.72-2.33-32.14,11.15-34.01-5.93-2.09-19.15,34.57-19.2,37.81-26.61,4.51-10.34-6.38-30.42-9.96-41.29-28.1-85.28,56.96-152.35,138.91-112.23,10.68,5.23,33.42,24.51,19.95,36.71-12.23,11.08-44.56-3.37-59.84-4.73-79.34-7.01-74.19,67.9-34.8,113.88,12.72,14.85,42.97,37.38,61.84,21.96,19.88-16.24-8.18-31.99-4.25-49.26,2.33-10.2,15.19-4.62,21.04-1.52,25.05,13.28,37.36,28.65,67.5,35.34,6.18,1.37,22.93,2.14,26.68,6.75h-.01ZM210.84,72.34c-8.24-.79-17.93-1.43-25.94,0-1.02.18-.74.13-1.72.29.17.83.3,1.49.39,1.99,2.02,10.92,4.63,21.73,6.95,32.59,5.58-.26,11.26-.1,16.75.57s11.33,1.84,16.92,3.03l6.15-32.81c-.36-1.49-16.99-5.42-19.51-5.66h.01ZM142.43,142.31c2.08-8.85,7.53-16.65,12.91-21.28l-19.87-25.17c-9.54,5.96-21.34,24.46-24.46,39.34l31.41,7.11h0ZM142.5,180.33l-30.7,8.99c-.43,4.92,22.21,41.51,5.51,50.59-7.69,4.18-34.44,6.57-33.66,18.85,1.01,15.92,31.91-6.25,36.35,7.61,3.47,10.82-12.27,17.26-14.75,25.12-3.1,9.83,4.53,13.38,12.68,9.71,12.76-5.74,24.41-23.85,39.92-16.76,10.42,4.76,14.41,13.23,13.61,24.43-.52,7.3-14.14,42.31,1.99,39.08,9.29-1.86,10.23-21.57,18.19-26.89,2.8-1.87,8.16-2.66,13.18.76,4.37,2.98,5.35,5.93,5.57,12.09.17,4.69.32,7.4.95,12.93.64,5.61,2.87,11.2,9.92,6.94,7.5-4.53,6.6-29.08,8.16-37.82,6.42-36.06,27.61-44.5,61.25-47.6,13.8-1.27,39.35,1.88,48.21-11.68,2.38-3.64,5.64-14.25,1.12-16.79-5-2.81-20.03-3.67-26.72-5.22-28.69-6.63-43.21-24.76-67.33-36.51-15.65-7.63-15.47,3.17-9.84,13.86,5.5,10.42,11.34,19.12,6.34,30.01-5.8,12.65-17.65,15.17-30.51,13.2-32.84-5.02-60.17-45.32-69.45-74.89h0Z"/>
</svg>