<?xml version="1.0" encoding="UTF-8"?>
<svg id="Capa_1" data-name="Capa 1" xmlns="http://www.w3.org/2000/svg" viewBox="0 0 2582.36 336.76">
  <defs>
    <style>
      .cls-1 {
        fill: #fff;
      }
    </style>
  </defs>
  <path class="cls-1" d="M566.23,53.64c48.71-4.92,87.38,28.26,83.95,78.01-2.09,30.05-29.69,61.81-60.49,63.93-28.59,1.94-48.88-3.04-67.69-25.4-34.53-41.1-9.37-111.11,44.23-116.54ZM576.97,61.49c-39.87.84-70.55,40.71-59.81,79.24,15.28,54.73,86.7,63.81,116.09,14.77,24.65-41.12-9.13-94.99-56.29-94.04v.03Z"/>
  <path class="cls-1" d="M751.11,192.33c-13.88-23.76-27.99-47.39-41.66-71.3-10.77-18.83-24.11-39.63-33.22-59-.98-2.09-4.06-8.12-2.3-9.85,2.66-2.6,5.19,1.25,6.95,3.04,25.87,40.11,48.91,82.01,73.06,123.17.45.3,1.67-1.43,2-1.91,5.16-7.16,10.36-17.22,15.01-25.01,16.77-28.08,32.47-58.32,50.26-85.56,2.12-3.28,8.8-14.68,12.47-14.62.81,0,2.15.48,2.63,1.19.3.6.51,1.19.45,1.88-.21,2.57-5.91,12.21-7.55,15.25-22.08,41.36-47.39,81.09-70.28,122v36.05h-7.88v-35.37l.06.03Z"/>
  <path class="cls-1" d="M1436.33,189.85v8.57l-97.38-.72-.75-138.24.87-3.79c32.26-2.89,64.85-1.01,97.26-1.55v8.57h-90.22v58.55c8.68.27,17.49-.36,26.17,0,1.52.06,2.86.66,4.27.75,4.27.24,18.8-1.67,13.22,6.06-14.33,2-29.13,1.73-43.66,1.82v59.99h90.22Z"/>
  <path class="cls-1" d="M2112.26,189.85v8.57l-97.38-.72-.75-138.24.87-3.79c32.26-2.89,64.85-1.01,97.26-1.55v8.57h-90.22v58.55c8.68.27,17.49-.36,26.17,0,1.52.06,2.87.66,4.27.75,4.27.24,18.8-1.67,13.22,6.06-14.33,2-29.13,1.73-43.66,1.82v59.99h90.22Z"/>
  <path class="cls-1" d="M2314.34,195.4c-21.22-34.62-42.02-69.6-61.84-105.05-5.01-8.98-10.77-18.47-15.28-27.61-.81-1.61-3.61-6.45-2.89-7.88.54-1.04,2.98-2.36,4.18-2.06,3.49.9,13.04,17.28,15.4,21.1,18.32,29.61,34.32,60.64,52.82,90.13,2.33,3.7,6.3,11.01,9.01,13.88.51.54.63,1.43,1.67,1.19,23.93-36.65,43.03-77.21,67.39-113.5,2.51-3.73,9.79-17.55,13.79-9.82-20.92,38.98-42.26,77.95-64.91,115.94-2.27,3.82-12.92,22.77-15.67,23.64-.9.3-2.89.45-3.64,0l-.03.03Z"/>
  <path class="cls-1" d="M941.55,68.44l-1.49.45c-15.16,25.84-29.64,52.11-44.92,77.86-7.58,12.8-15.19,26.44-23.46,38.74-1.55,2.33-6.63,10.68-8.83,11.16-4.45-.39-2.87-3.91-1.85-6.8,3.01-8.57,10.65-20.71,15.25-29.07,17.25-31.34,36.74-66.94,56.4-96.57,1.49-2.24,5.82-9.67,8.51-9.4,1.4.15,3.25,3.4,4.12,4.54,4.6,6.15,8.92,13.94,13.04,20.56,16.35,26.44,32.8,54.38,47.81,81.59,2.63,4.75,15.64,27.43,15.55,30.86-.03,1.43-1.25,3.16-2.57,3.82-1.88.48-4.06-1.82-5.22-3.13-25.07-40.95-48.74-82.79-72.34-124.6Z"/>
  <path class="cls-1" d="M1716.29,68.44l-1.49.45c-15.16,25.84-29.63,52.11-44.92,77.86-7.58,12.8-15.19,26.44-23.46,38.74-1.55,2.33-6.63,10.68-8.83,11.16-4.45-.39-2.86-3.91-1.85-6.8,3.01-8.57,10.65-20.71,15.25-29.07,17.25-31.34,36.74-66.94,56.4-96.57,1.49-2.24,5.82-9.67,8.51-9.4,1.4.15,3.25,3.4,4.12,4.54,4.6,6.15,8.92,13.94,13.04,20.56,16.35,26.44,32.8,54.38,47.81,81.59,2.63,4.75,15.64,27.43,15.55,30.86-.03,1.43-1.25,3.16-2.57,3.82-1.88.48-4.06-1.82-5.22-3.13-25.07-40.95-48.74-82.79-72.34-124.6h0Z"/>
  <path class="cls-1" d="M2503.19,68.44l-1.49.45c-15.16,25.84-29.63,52.11-44.92,77.86-7.58,12.8-15.19,26.44-23.46,38.74-1.55,2.33-6.63,10.68-8.83,11.16-4.45-.39-2.87-3.91-1.85-6.8,3.01-8.57,10.65-20.71,15.25-29.07,17.25-31.34,36.74-66.94,56.41-96.57,1.49-2.24,5.82-9.67,8.51-9.4,1.4.15,3.25,3.4,4.12,4.54,4.6,6.15,8.92,13.94,13.04,20.56,16.35,26.44,32.8,54.38,47.81,81.59,2.63,4.75,15.64,27.43,15.55,30.86-.03,1.43-1.25,3.16-2.57,3.82-1.88.48-4.06-1.82-5.22-3.13-25.07-40.95-48.74-82.79-72.34-124.6h0Z"/>
  <path class="cls-1" d="M1069.28,89.6c-5.01-4.98-6-14.53-4.95-21.22,2.3-14.44,19.25-20.47,31.66-14.38,4.27,2.09,16.32,13.79,6.86,15.73-4.92,1.01-6.24-4.27-9.73-6.45-5.28-3.28-10.15-3.73-15.16.15-6.51,5.01-8,12.98-1.82,18.95s19.46,5.85,27.78,8.71c42.83,14.68,48.02,73.83,9.7,97.17-19.7,12-49.27,9.52-65.78-6.98-7.37-7.37-2.98-12.62,6.36-7.04s14.27,11.07,26.59,12.03c51.81,4,70.61-65.51,20.92-85.86-9.4-3.85-25.76-4.18-32.44-10.83v.03Z"/>
  <path class="cls-1" d="M1922.07,89.6c-5.01-4.98-6-14.53-4.95-21.22,2.3-14.44,19.25-20.47,31.66-14.38,4.27,2.09,16.32,13.79,6.86,15.73-4.92,1.01-6.24-4.27-9.73-6.45-5.28-3.28-10.15-3.73-15.16.15-6.51,5.01-8,12.98-1.82,18.95s19.46,5.85,27.78,8.71c42.83,14.68,48.02,73.83,9.7,97.17-19.7,12-49.27,9.52-65.78-6.98-7.37-7.37-2.98-12.62,6.36-7.04s14.27,11.07,26.59,12.03c51.81,4,70.61-65.51,20.92-85.86-9.4-3.85-25.76-4.18-32.44-10.83v.03Z"/>
  <path class="cls-1" d="M406.68,61.28v-8.57c19.49.72,39.63-.96,59.06,0,3.16.15,9.01.45,11.85,1.01,2,.42,4.33,1.13,4.15,3.46-.24,2.84-5.73,3.16-8.12,3.34-8.3.63-17.07-.06-25.4.72-.63,20.26.87,40.83.03,61.09s-4,34.53-17.55,49.6c-11.73,13.04-33.72,24.41-51.57,24.32-10.24-.06-8.03-6.74.33-8.98,8.36-2.24,13.13-1.13,22.23-5.67,30.44-15.19,36.86-35.66,37.96-67.84.6-17.46-.51-35.07,0-52.53h-32.95l-.03.03Z"/>
  <path class="cls-1" d="M1242.82,52.87c16.86-3.73,43.15,10.39,54.29,22.68,37.04,41.01,17.4,103.83-35.31,118.36-4.03,1.1-24.92,7.04-22.23-2.15,1.25-4.27,14.95-5.43,19.19-6.6,63.42-17.22,64.4-102.93,1.25-121.23-4-1.16-18.68-3.1-20.26-6.24-1.19-2.36.75-4.36,3.04-4.86l.03.03Z"/>
  <path class="cls-1" d="M1540.78,52.81c.98.63,2.15,10.45,2.27,12.36.81,13.28.54,27.43.72,40.71.42,27.49-.36,55.03-.03,82.52,22.59.63,45.51-1.52,67.89,1.55,1.82,4.36-.48,5.64-4.57,6.24-10.65,1.52-20.95.09-31.43,0-13.01-.09-26.05.12-39.07.03l-.75-138.24c.3-3.52.66-6.24,4.95-5.22v.06Z"/>
  <path class="cls-1" d="M2139.39,52.81c.98.63,2.15,10.45,2.27,12.36.81,13.28.54,27.43.72,40.71.42,27.49-.36,55.03-.03,82.52,22.59.63,45.51-1.52,67.89,1.55,1.82,4.36-.48,5.64-4.57,6.24-10.65,1.52-20.95.09-31.43,0-13.01-.09-26.05.12-39.07.03l-.75-138.24c.3-3.52.66-6.24,4.95-5.22v.06Z"/>
  <g>
    <path class="cls-1" d="M1550.21,303.05l3.12.07,21.45,26.59v-26.66h3.51v33.32l-3.05.04-21.52-26.7v26.66h-3.51v-33.32Z"/>
    <path class="cls-1" d="M1047.32,303.05v3.17h-19.46v11.74h17.55q.02,1.48.02,3.17h-17.57v12.06h20.1v3.17h-23.61v-33.32h22.97Z"/>
    <path class="cls-1" d="M1454.48,329.71l4.79,2.69c4.06,1.63,12.65,2.26,14.73-2.47,1.46-3.31-.19-5.68-3.25-7.04-5.26-2.33-15.67-2.14-16.55-9.56-1.27-10.69,11.7-12.27,19.33-9.39.44.17,3.04,1.46,3.15,1.64s-.93,2.78-1.32,2.86c-4.18-3.12-15.56-4.43-17.39,1.73-2.19,7.38,9.49,7.72,14.05,9.54,4.05,1.62,6.38,3.97,6.08,8.58-.71,10.73-18.72,10.15-24.76,4.28l1.14-2.86Z"/>
    <path class="cls-1" d="M976.8,324.79l-13.4-21.73c1.22.16,3.29-.45,4.17.46l10.74,17.55.57.4c1.56-1.96,10.4-18.3,11.48-18.43,1.02-.12,2.34,0,3.36.18l-13.4,21.58v11.58h-3.51v-11.58Z"/>
    <path class="cls-1" d="M851.13,329.74c.16.11.27.66,1.71,1.86,2.56,2.14,7.66,3.17,9.89.33,1.93-2.46,1.75-3.02,1.75-3.66v-22.06h-12.34q-.13,0-.14-.03v-1.18c0-1.11.03-1.11.04-1.96h15.95v25.86c0,1.14-1.07,3.25-1.33,3.75-2.41,4.57-9.91,4.97-14.09,2.7-.7-.38-2.11-1.17-3.88-3.42,0,0,0,0,.06-.06"/>
    <rect class="cls-1" x="1141.13" y="303.05" width="3.51" height="33.32"/>
    <rect class="cls-1" x="1351.41" y="303.05" width="3.51" height="33.32"/>
    <rect class="cls-1" x="1510.64" y="303.05" width="3.51" height="33.32"/>
    <rect class="cls-1" x="1673.69" y="303.05" width="3.51" height="33.32"/>
    <path class="cls-1" d="M1150.7,294.48q-4.91,4.28-6.62,5.86s-.02,0-.04,0c-.21,0-.21,0-.24,0-.09,0-.09,0-.52,0-3.09,0-2.15,0-3.42,0,.75-.75,5.86-5.54,6.22-5.87h4.63Z"/>
    <path class="cls-1" d="M1311.8,318.95c2.85-1.69,3.31-1.9,4.35-4.17,2.87-6.24-2.35-11.73-8.61-11.73h-17.07v33.32h18.99c3.96-.99,4.04-1.12,4.84-1.53,6.66-3.43,5.07-14.59-2.5-15.89ZM1293.97,305.91h11.65c.24,0,1.99-.04,2.37,0q2.67.31,4.44,1.91c1.85,1.67,1.74,5.19.65,7.18-.5.9-1.94,1.45-3.08,1.94-2.46,1.04-2.9,1.04-3.1,1.04h-12.92v-12.06ZM1312.47,332.07c-1.12.72-4.28,1.44-5.57,1.44h-12.92v-12.69h12.6c1.26,0,4.79.74,5.89,1.44,3.43,2.2,3.45,7.61,0,9.81Z"/>
    <path class="cls-1" d="M1854.2,304.58c-.94-.39-4.36-1.53-5.16-1.53h-16.75v33.32h16.75c.8,0,4.22-1.14,5.16-1.53,13-5.36,13.01-24.9,0-30.26ZM1848.72,333.2h-12.92v-26.97h12.92c6.46,0,11.67,7.48,11.67,13.49s-5.2,13.49-11.67,13.49Z"/>
    <path class="cls-1" d="M916.1,302.83c-20.55,2.1-20.28,32.2.55,33.86,25.83,2.06,25.69-36.54-.55-33.86ZM919.52,333.51c-18.68,1.15-20.37-25.73-2.77-27.51,19.44-1.96,21.01,26.38,2.77,27.51Z"/>
    <path class="cls-1" d="M1403.36,302.83c-20.55,2.1-20.28,32.2.55,33.86,25.83,2.06,25.69-36.54-.55-33.86ZM1406.77,333.51c-18.68,1.15-20.37-25.73-2.77-27.51,19.44-1.96,21.01,26.38,2.77,27.51Z"/>
    <path class="cls-1" d="M1732.08,324.79c8.24-2.11,9.98-14,3.49-19.02-1.62-1.25-4.8-2.72-6.83-2.72h-15.48v33.32h3.51v-10.47h10.69c.17,0,0,0,1.34-.05l7.12,10.36,4.15.16-7.98-11.58ZM1727.46,322.73h-10.69v-16.5h11.65c.47,0,2.57.74,3.15.99,6.18,2.76,5.63,12.52-.77,14.71-.57.19-2.91.8-3.34.8Z"/>
    <path class="cls-1" d="M1100.28,324.79c8.24-2.11,9.98-14,3.49-19.02-1.62-1.25-4.8-2.74-6.83-2.72q-10.36.06-15.48,0v33.32h3.51v-10.47h10.69c.17,0,.09,0,1.28.01l7.18,10.3,4.15.16-7.98-11.58ZM1095.66,322.73h-10.69v-16.5h11.65c.47,0,2.57.74,3.15.99,6.18,2.76,5.63,12.52-.77,14.71-.57.19-2.91.8-3.34.8Z"/>
    <path class="cls-1" d="M1639.61,309.5c-1.41-3.23-6.27-6.44-9.79-6.44h-15.48v33.32h3.51v-10.47h10.69c8.72,0,14.61-8.33,11.07-16.4ZM1631.88,321.92c-.57.19-2.91.8-3.34.8h-10.69v-16.5h11.65c.47,0,2.57.74,3.15.99,6.21,2.77,5.67,12.51-.77,14.71Z"/>
    <path class="cls-1" d="M1206.37,336.53q.84-.01,3.06-.02l-15.23-33.25q-1.88,0-3.64,0l-15.36,33.27c3.77,0,1.96,0,3.08,0,.33,0,.4,0,.55,0,.03,0,.13,0,.13,0q.05-.09.06-.11c.43-.71,3.21-7.58,3.85-8.68l.11-.22h18.54s4,8.89,4,8.89q.04.11.05.11M1184.5,324.68l7.82-17.77,7.82,17.77h-15.64Z"/>
    <path class="cls-1" d="M1786.46,303.22c-3.64-.01-.01,0-3.64-.01l-15.31,33.16q2.77.05,3.19.05c.36,0,0,0,.49,0,.02,0,.01,0,.06-.03.47-.35,3.24-7.61,3.88-8.7l.12-.22h18.53s4.03,8.96,4.03,8.96c.03.03,0,0,0,0l.52-.02c.28,0,.7,0,3.32-.03l-15.19-33.15ZM1776.76,324.63l7.82-17.77,7.82,17.77h-15.64Z"/>
    <path class="cls-1" d="M1910.53,303.09c-3.53-.01-1.96-.02-3.53,0l-15.42,33.41c1.82,0,2.68,0,3.12,0,.31,0,.31,0,.58,0,0,0-.04.09,0,0q3.11-7.01,3.98-8.81l.1-.22h18.55s4.04,8.98,4.04,8.98c.02.02,0,0,0,0,.25,0,.16,0,.25,0q.81,0,3.65,0l-15.32-33.34ZM1900.89,324.63l7.82-17.77,7.82,17.77h-15.64Z"/>
  </g>
  <path class="cls-1" d="M295.02,191.07c3.18,3.92,1.14,13.65-.76,18.14-9.07,21.39-38.81,17.62-57.41,19.54-40.76,4.19-61.05,10.82-67.29,55.43-1.51,10.76.03,39.23-15.17,40.67-20.05,1.91-7.28-29.11-17.33-36.29-17.18-12.29-16.38,19.49-27.87,26.71-7.04,4.42-16.86,1.7-18.63-6.9-3.49-16.91,15.43-41.37,2.41-56.04-19.12-21.57-34.51,8.32-52.02,13.54-17.05,5.07-23.3-10.47-13.53-23.6,2.42-3.25,20.23-17.91,9.71-21.09-8.62-2.6-35.9,12.46-37.99-6.62-2.33-21.39,38.62-21.45,42.24-29.73,5.04-11.55-7.13-33.98-11.13-46.12C-1.14,43.43,93.88-31.49,185.42,13.32c11.93,5.84,37.33,27.38,22.29,41.01-13.66,12.38-49.78-3.76-66.85-5.28-88.63-7.83-82.88,75.85-38.87,127.21,14.21,16.59,48,41.76,69.08,24.53,22.21-18.14-9.14-35.74-4.75-55.03,2.6-11.39,16.97-5.16,23.5-1.7,27.98,14.83,41.73,32,75.4,39.48,6.9,1.53,25.61,2.39,29.8,7.54h-.01ZM145.44,5.33c-9.2-.88-20.03-1.6-28.98,0-1.14.2-.83.15-1.92.32.19.92.33,1.66.44,2.22,2.26,12.2,5.17,24.27,7.76,36.41,6.23-.29,12.58-.11,18.71.64s12.66,2.06,18.9,3.38l6.87-36.65c-.4-1.66-18.98-6.05-21.79-6.32h.01ZM69.02,83.49c2.32-9.89,8.41-18.6,14.42-23.77l-22.2-28.12c-10.66,6.66-23.84,27.32-27.32,43.95l35.09,7.94h.01ZM69.1,125.96l-34.29,10.04c-.48,5.5,24.81,46.37,6.16,56.51-8.59,4.67-38.47,7.34-37.6,21.06,1.13,17.78,35.65-6.98,40.61,8.5,3.88,12.09-13.71,19.28-16.48,28.06-3.46,10.98,5.06,14.95,14.16,10.85,14.25-6.41,27.27-26.64,44.59-18.72,11.64,5.32,16.1,14.78,15.2,27.29-.58,8.15-15.8,47.26,2.22,43.66,10.38-2.08,11.43-24.1,20.32-30.04,3.13-2.09,9.12-2.97,14.72.85,4.88,3.33,5.98,6.62,6.22,13.51.19,5.24.36,8.27,1.06,14.44.71,6.27,3.21,12.51,11.08,7.75,8.38-5.06,7.37-32.48,9.12-42.25,7.17-40.28,30.84-49.71,68.42-53.17,15.42-1.42,43.96,2.1,53.85-13.05,2.66-4.07,6.3-15.92,1.25-18.76-5.59-3.14-22.38-4.1-29.85-5.83-32.05-7.41-48.27-27.66-75.21-40.78-17.48-8.52-17.28,3.54-10.99,15.48,6.14,11.64,12.67,21.36,7.08,33.52-6.48,14.13-19.72,16.95-34.08,14.75-36.69-5.61-67.21-50.63-77.58-83.66h.01Z"/>
</svg>